#!OML:ASF F:\VICON\USERDATA\INSTALL\rory3\rory3.ASF
:FULLY-SPECIFIED
:DEGREES
1304
root -0.0567354 15.7175 -6.49884 -21.2744 -19.6711 0.222582
lowerback 22.1466 -0.239739 -0.55712
upperback 11.4504 -0.632082 -0.662205
thorax 0.120312 -0.407842 -0.255894
lowerneck -8.98509 -4.04301 -10.141
upperneck -2.86548 -4.45694 5.11376
head 1.03336 -2.08862 3.29308
rclavicle 9.39258e-015 5.96354e-015
rhumerus -46.725 46.3473 -95.9293
rradius 91.1508
rwrist -3.42178
rhand -44.1128 15.3808
rfingers 7.12502
rthumb -16.9298 -13.9013
lclavicle 9.39258e-015 5.96354e-015
lhumerus -48.0076 -49.1728 93.1965
lradius 77.2038
lwrist -3.26856
lhand -52.556 23.5714
lfingers 7.12502
lthumb -25.0403 51.95
rfemur -28.4796 0.678535 9.56399
rtibia 67.5408
rfoot -16.8053 -3.62967
rtoes -6.76145
lfemur -36.816 13.4238 0.956036
ltibia 83.8306
lfoot 6.15846 -2.12087
ltoes 3.36143
1305
root -0.0576017 15.7222 -6.48925 -20.8806 -19.6085 0.245409
lowerback 22.1961 -0.233593 -0.713377
upperback 11.3859 -0.65426 -0.706119
thorax 0.0264139 -0.423404 -0.208461
lowerneck -8.94129 -4.0888 -10.0825
upperneck -2.98734 -4.52762 5.12976
head 0.99 -2.12288 3.28484
rclavicle 4.06515e-014 -1.68967e-014
rhumerus -46.6804 46.2972 -95.9707
rradius 91.0592
rwrist -3.42566
rhand -43.8186 14.9196
rfingers 7.12502
rthumb -16.6466 -14.3866
lclavicle 4.06515e-014 -1.68967e-014
lhumerus -48.0971 -49.4483 93.186
lradius 77.2509
lwrist -3.30251
lhand -52.3188 23.8588
lfingers 7.12502
lthumb -24.8131 52.2689
rfemur -28.5154 0.806724 9.45115
rtibia 67.0571
rfoot -16.7528 -3.24182
rtoes -4.67368
lfemur -36.7148 13.3225 0.867945
ltibia 83.4297
lfoot 6.20187 -2.13311
ltoes 3.74152
1306
root -0.0582141 15.7376 -6.47454 -20.5816 -19.5625 0.478953
lowerback 22.1334 -0.195163 -1.0529
upperback 11.3953 -0.670043 -0.793094
thorax 0.0707087 -0.443445 -0.105953
lowerneck -9.05699 -4.12274 -10.0373
upperneck -3.05934 -4.56524 5.08947
head 0.986898 -2.14056 3.25902
rclavicle 1.87852e-014 8.15017e-015
rhumerus -46.5911 46.3233 -95.9603
rradius 90.9983
rwrist -3.42919
rhand -43.6523 14.3619
rfingers 7.12502
rthumb -16.4864 -14.9577
lclavicle 1.87852e-014 8.15017e-015
lhumerus -48.1267 -49.6009 93.1757
lradius 77.307
lwrist -3.27567
lhand -52.0759 24.3161
lfingers 7.12502
lthumb -24.5802 52.7581
rfemur -28.4941 0.973763 9.1369
rtibia 66.529
rfoot -16.97 -3.34248
rtoes -4.49856
lfemur -36.5437 13.1996 0.556307
ltibia 83.0134
lfoot 6.19427 -2.19055
ltoes 3.06216
1307
root -0.0584758 15.7448 -6.45628 -20.3036 -19.6133 0.505733
lowerback 22.0893 -0.194319 -1.18014
upperback 11.4585 -0.694312 -0.82707
thorax 0.163209 -0.461594 -0.0658872
lowerneck -9.17111 -4.14538 -10.004
upperneck -3.17175 -4.58692 5.07731
head 0.970242 -2.14924 3.24623
rclavicle -3.24516e-014 3.04141e-014
rhumerus -46.4734 46.3561 -95.9151
rradius 90.9657
rwrist -3.43215
rhand -43.7403 14.3765
rfingers 7.12502
rthumb -16.5711 -14.9359
lclavicle -3.24516e-014 3.04141e-014
lhumerus -48.147 -49.8786 93.1823
lradius 77.3218
lwrist -3.18847
lhand -52.0791 24.8176
lfingers 7.12502
lthumb -24.5833 53.2591
rfemur -28.3797 1.13562 9.10025
rtibia 66.0117
rfoot -17.1721 -3.89858
rtoes -5.58434
lfemur -36.3141 13.1137 0.52754
ltibia 82.6458
lfoot 6.23765 -2.27711
ltoes 2.41022
1308
root -0.0586415 15.7404 -6.44098 -19.9136 -19.8421 0.159431
lowerback 22.1722 -0.206384 -0.933939
upperback 11.4707 -0.66514 -0.760162
thorax 0.133356 -0.439102 -0.139693
lowerneck -9.15539 -4.16095 -10.0568
upperneck -3.30141 -4.60425 5.18963
head 0.93178 -2.15432 3.29525
rclavicle 1.19271e-015 6.55989e-015
rhumerus -46.4256 46.363 -95.9337
rradius 90.901
rwrist -3.48072
rhand -43.808 14.7389
rfingers 7.12502
rthumb -16.6364 -14.5681
lclavicle 1.19271e-015 6.55989e-015
lhumerus -48.2479 -50.2166 93.2475
lradius 77.3075
lwrist -3.21117
lhand -52.1084 25.1333
lfingers 7.12502
lthumb -24.6114 53.5711
rfemur -28.3961 1.37245 9.51736
rtibia 65.6217
rfoot -17.1662 -4.48284
rtoes -6.11056
lfemur -36.132 13.1717 0.991903
ltibia 82.3347
lfoot 6.37055 -2.42843
ltoes 2.44447
1309
root -0.058306 15.7444 -6.42831 -19.6868 -19.9749 0.124795
lowerback 22.3904 -0.160113 -1.02975
upperback 11.4512 -0.628365 -0.751472
thorax 0.00632187 -0.425338 -0.0821047
lowerneck -9.20418 -4.15956 -10.1413
upperneck -3.23025 -4.59063 5.28724
head 0.968812 -2.1462 3.34525
rclavicle -3.57812e-014 3.43897e-014
rhumerus -46.4931 46.3882 -96.0009
rradius 90.8532
rwrist -3.5712
rhand -43.8016 15.1416
rfingers 7.12502
rthumb -16.6302 -14.1659
lclavicle -3.57812e-014 3.43897e-014
lhumerus -48.3708 -50.3238 93.3176
lradius 77.2517
lwrist -3.18606
lhand -52.2982 24.3143
lfingers 7.12502
lthumb -24.7933 52.7271
rfemur -28.521 1.55084 9.55816
rtibia 65.4375
rfoot -16.9392 -4.50137
rtoes -5.82198
lfemur -35.7928 13.1192 1.0617
ltibia 81.9286
lfoot 6.43886 -2.40109
ltoes 2.58158
